# Sphere
# Vertices
v 0.0 1.0 0.0
v 0.0 0.809 0.588
v 0.588 0.809 0.0
v 0.0 0.809 -0.588
v -0.588 0.809 0.0
v 0.951 0.309 0.0
v 0.294 0.309 0.904
v -0.769 0.309 0.559
v -0.769 0.309 -0.559
v 0.294 0.309 -0.904
v 0.951 -0.309 0.0
v 0.294 -0.309 0.904
v -0.769 -0.309 0.559
v -0.769 -0.309 -0.559
v 0.294 -0.309 -0.904
v 0.0 -0.809 0.588
v 0.588 -0.809 0.0
v 0.0 -0.809 -0.588
v -0.588 -0.809 0.0
v 0.0 -1.0 0.0

# Faces
f 1 2 3
f 1 3 4
f 1 4 5
f 1 5 2
f 2 6 7
f 2 7 8
f 2 8 5
f 2 5 4
f 3 6 2
f 4 9 3
f 4 3 10
f 5 8 9
f 5 9 4
f 6 11 7
f 7 12 8
f 8 13 9
f 9 14 10
f 10 15 6
f 11 12 7
f 12 16 13
f 13 17 14
f 14 18 15
f 15 19 11
f 16 12 11
f 17 13 12
f 18 14 13
f 19 15 14
f 16 17 12
f 17 18 13
f 18 19 14
f 19 11 15
f 20 16 11
f 20 11 19
f 20 19 18
f 20 18 17
f 20 17 16
